# xmcd
# Track frame offsets:
# 150
# 17880
# 36839
# 54930
# 70100
# 85565
# 109414
# 130562
# 151299
# 164159
# 186305
# 210448
#
# Disc length: 3078 seconds
# Revision: 0
# Processed by: cddbd v1.5.2PL0 Copyright (c) Steve Scherf et al.
# Submitted via: VisiTrax 2.10.3.257 - For more info visit www.synapsa.com
#
DISCID=9b0c040c
DTITLE=Wright, Rebecca - All I See
DYEAR=2006
DGENRE=
TTITLE0=Perfect Weekend
TTITLE1=Sunshine part 2
TTITLE2=All I see
TTITLE3=Frangipani Sunsets
TTITLE4=Here She Is
TTITLE5=Feet and Hands
TTITLE6=February
TTITLE7=All Wrong
TTITLE8=By way of Sorrow
TTITLE9=Winters Coming
TTITLE10=Listening to my Heart
TTITLE11=Up and Down
EXTD=
EXTT0=
EXTT1=
EXTT2=
EXTT3=
EXTT4=
EXTT5=
EXTT6=
EXTT7=
EXTT8=
EXTT9=
EXTT10=
EXTT11=
PLAYORDER=
